HIERARCHY
ROOT Hips
{
	OFFSET 0.000000 0.000000 0.000000
	CHANNELS 6 Xposition Yposition Zposition Xrotation Yrotation Zrotation
	JOINT LeftUpLeg_virtual
	{
		OFFSET 0.000000 0.000000 0.000000
		CHANNELS 3 Xrotation Yrotation Zrotation
		JOINT LeftUpLeg
		{
			OFFSET 10.205400 -3.823500 0.155100
			CHANNELS 3 Xrotation Yrotation Zrotation
			JOINT LeftLeg
			{
				OFFSET 0.708757 -12.982077 0.567790
				CHANNELS 3 Xrotation Yrotation Zrotation
				JOINT LeftFoot
				{
					OFFSET -0.708756 -10.717838 -2.184338
					CHANNELS 3 Xrotation Yrotation Zrotation
					JOINT LeftToeBase
					{
						OFFSET 0.108149 -7.191104 7.560241
						CHANNELS 3 Xrotation Yrotation Zrotation
						JOINT LeftToe_End
						{
							OFFSET 0.070230 0.081724 4.490308
							CHANNELS 3 Xrotation Yrotation Zrotation
							End Site
							{
								OFFSET 0 0 0
							}
						}
					}
				}
			}
		}
	}
	JOINT RightUpLeg_virtual
	{
		OFFSET 0.000000 0.000000 0.000000
		CHANNELS 3 Xrotation Yrotation Zrotation
		JOINT RightUpLeg
		{
			OFFSET -10.205400 -3.823500 0.005500
			CHANNELS 3 Xrotation Yrotation Zrotation
			JOINT RightLeg
			{
				OFFSET -0.708756 -12.982134 0.610632
				CHANNELS 3 Xrotation Yrotation Zrotation
				JOINT RightFoot
				{
					OFFSET 0.708754 -10.717769 -1.945823
					CHANNELS 3 Xrotation Yrotation Zrotation
					JOINT RightToeBase
					{
						OFFSET -0.108140 -7.191069 7.372968
						CHANNELS 3 Xrotation Yrotation Zrotation
						JOINT RightToe_End
						{
							OFFSET -0.070227 0.081735 4.479403
							CHANNELS 3 Xrotation Yrotation Zrotation
							End Site
							{
								OFFSET 0 0 0
							}
						}
					}
				}
			}
		}
	}
	JOINT Spine_virtual
	{
		OFFSET 0.000000 0.000000 0.000000
		CHANNELS 3 Xrotation Yrotation Zrotation
		JOINT Spine
		{
			OFFSET 0.000000 6.876099 0.125700
			CHANNELS 3 Xrotation Yrotation Zrotation
			JOINT Spine1
			{
				OFFSET 0.000000 5.730043 0.104720
				CHANNELS 3 Xrotation Yrotation Zrotation
				JOINT Spine1_split
				{
					OFFSET 0.000000 5.730043 0.104720
					CHANNELS 3 Xrotation Yrotation Zrotation
					JOINT Spine2
					{
						OFFSET 0.000000 5.730043 0.104720
						CHANNELS 3 Xrotation Yrotation Zrotation
						JOINT Neck_virtual
						{
							OFFSET 0.000000 0.000000 0.000000
							CHANNELS 3 Xrotation Yrotation Zrotation
							JOINT Neck
							{
								OFFSET 0.000000 10.314075 0.188496
								CHANNELS 3 Xrotation Yrotation Zrotation
								JOINT Head
								{
									OFFSET 0.000000 7.643700 -2.377400
									CHANNELS 3 Xrotation Yrotation Zrotation
									JOINT HeadTop_End
									{
										OFFSET 0.000000 43.788605 -13.619600
										CHANNELS 3 Xrotation Yrotation Zrotation
										End Site
										{
											OFFSET 0 0 0
										}
									}
								}
							}
						}
						JOINT LeftShoulder_virtual
						{
							OFFSET 0.000000 0.000000 0.000000
							CHANNELS 3 Xrotation Yrotation Zrotation
							JOINT LeftShoulder
							{
								OFFSET 2.196100 4.412489 0.087492
								CHANNELS 3 Xrotation Yrotation Zrotation
								JOINT LeftShoulder_split
								{
									OFFSET 2.196100 4.412489 0.087492
									CHANNELS 3 Xrotation Yrotation Zrotation
									JOINT LeftArm
									{
										OFFSET 8.771219 -2.981674 -0.026999
										CHANNELS 3 Xrotation Yrotation Zrotation
										JOINT LeftForeArm
										{
											OFFSET 8.512804 0.000000 -0.000000
											CHANNELS 3 Xrotation Yrotation Zrotation
											JOINT LeftHand
											{
												OFFSET 18.484802 0.000000 -0.000000
												CHANNELS 3 Xrotation Yrotation Zrotation
												End Site
												{
													OFFSET 0 0 0
												}
											}
										}
									}
								}
							}
						}
						JOINT RightShoulder_virtual
						{
							OFFSET 0.000000 0.000000 0.000000
							CHANNELS 3 Xrotation Yrotation Zrotation
							JOINT RightShoulder
							{
								OFFSET -2.196100 4.412496 0.070690
								CHANNELS 3 Xrotation Yrotation Zrotation
								JOINT RightShoulder_split
								{
									OFFSET -2.196100 4.412496 0.070690
									CHANNELS 3 Xrotation Yrotation Zrotation
									JOINT RightArm
									{
										OFFSET -8.771282 -2.981682 -0.094208
										CHANNELS 3 Xrotation Yrotation Zrotation
										JOINT RightForeArm
										{
											OFFSET -8.494598 0.000000 0.000000
											CHANNELS 3 Xrotation Yrotation Zrotation
											JOINT RightHand
											{
												OFFSET -18.483803 0.000000 0.000001
												CHANNELS 3 Xrotation Yrotation Zrotation
												End Site
												{
													OFFSET 0 0 0
												}
											}
										}
									}
								}
							}
						}
					}
				}
			}
		}
	}
}
MOTION
Frames: 11
Frame Time: 0.03333333
0.861182 27.057514 0.070930 0.000000 0.000000 0.000000 0.599724 -39.600392 5.107627 -44.886572 3.580907 26.350163 66.410858 -13.137051 -0.824992 -23.719205 -10.147031 -15.323712 -1.594221 0.000011 0.000004 0.000000 0.000000 0.000000 0.599724 -39.600392 5.107627 -12.085456 -10.646569 -41.110618 63.081032 -0.250741 -3.958084 -39.042761 -17.639264 32.212364 -1.421660 -0.000023 -0.000002 0.000000 0.000000 0.000000 0.599724 -39.600392 5.107627 9.186327 12.297307 -4.733790 1.672185 3.532448 -1.569845 0.000000 0.000000 0.000000 0.000000 0.000000 0.000000 1.638524 3.528963 -1.543017 -4.862645 12.139440 2.331065 4.632082 10.710220 1.658942 0.000000 0.000000 0.000000 1.638524 3.528963 -1.543017 0.209301 2.974851 -2.473070 0.000000 0.000000 0.000000 0.123055 -7.830026 -46.663682 179.999991 -48.219968 -179.999991 0.000000 0.000000 0.000000 1.638524 3.528963 -1.543017 -0.105675 15.835802 -4.186731 0.000000 0.000000 0.000000 -49.344524 18.610565 60.543418 179.999950 75.519940 179.999991 0.000000 0.000000 0.000000 
1.066299 27.266575 0.218747 0.000000 0.000000 0.000000 1.506445 -47.196430 6.015680 -38.480009 6.474564 28.433342 65.319674 -14.302401 -2.467330 -28.205486 -4.517378 -14.529564 -1.594224 0.000009 0.000003 0.000000 0.000000 0.000000 1.506445 -47.196430 6.015680 -20.112890 -4.211161 -40.809591 65.844642 1.814541 -7.194668 -36.502191 -15.341363 31.344380 -1.421663 -0.000021 -0.000001 0.000000 0.000000 0.000000 1.506445 -47.196430 6.015680 9.401156 13.181183 -4.746337 1.781057 3.670390 -1.552474 0.000000 0.000000 0.000000 0.000000 0.000000 0.000000 1.745708 3.669436 -1.526470 -4.852179 13.507686 1.989613 5.455247 14.636204 -0.622791 0.000000 0.000000 0.000000 1.745708 3.669436 -1.526470 0.097891 3.823967 -2.193866 0.000000 0.000000 0.000000 0.257130 0.811138 -40.840245 179.999991 -46.688096 179.999991 0.000000 0.000000 0.000000 1.745708 3.669436 -1.526470 0.200223 11.353369 -3.117938 0.000000 0.000000 0.000000 -51.036960 23.059958 69.349035 179.999950 73.542286 -179.999978 0.000000 0.000000 0.000000 
1.267810 27.370796 0.296392 0.000000 0.000000 0.000000 3.218366 -54.908765 6.928438 -32.307007 8.439511 29.884311 64.440273 -15.411804 -3.968749 -32.960297 2.117377 -13.804363 -1.594223 0.000009 0.000004 0.000000 0.000000 0.000000 3.218366 -54.908765 6.928438 -28.930403 1.058313 -38.263133 67.678924 4.971749 -9.677192 -32.959966 -12.767191 29.186279 -1.421659 -0.000021 -0.000002 0.000000 0.000000 0.000000 3.218366 -54.908765 6.928438 9.175135 12.879773 -4.645884 1.764132 3.368147 -1.656707 0.000000 0.000000 0.000000 0.000000 0.000000 0.000000 1.742108 3.364818 -1.629985 -5.053196 15.121573 2.024822 6.249761 20.624680 -3.332858 0.000000 0.000000 0.000000 1.742108 3.364818 -1.629985 -0.179991 5.325306 -0.579801 0.000000 0.000000 0.000000 -7.789435 6.885935 -33.013149 -179.999991 -52.729740 -179.999991 0.000000 0.000000 0.000000 1.742108 3.364818 -1.629985 0.645884 8.044685 -2.081313 0.000000 0.000000 0.000000 -52.775670 29.458548 75.713876 179.999964 72.419328 -179.999978 0.000000 0.000000 0.000000 
1.447864 27.351414 0.241906 0.000000 0.000000 0.000000 3.387053 -59.756082 6.013181 -28.061371 8.238625 30.389789 64.941685 -16.315218 -4.237140 -36.598961 7.745871 -13.345081 -1.594222 0.000013 0.000003 0.000000 0.000000 0.000000 3.387053 -59.756082 6.013181 -34.012617 3.210686 -35.599417 68.128241 7.133505 -9.910621 -30.123986 -10.324537 26.976382 -1.421659 -0.000021 -0.000001 0.000000 0.000000 0.000000 3.387053 -59.756082 6.013181 9.337586 10.954690 -4.159407 1.947400 2.500748 -1.752773 0.000000 0.000000 0.000000 0.000000 0.000000 0.000000 1.954956 2.491329 -1.724668 -5.559966 16.496976 2.373658 6.629186 26.689480 -5.918445 0.000000 0.000000 0.000000 1.954956 2.491329 -1.724668 -0.413420 6.098892 1.409509 0.000000 0.000000 0.000000 -19.127564 3.078813 -25.363935 179.999991 -72.730545 179.999991 0.000000 0.000000 0.000000 1.954956 2.491329 -1.724668 1.134247 6.092609 -1.214596 0.000000 0.000000 0.000000 -52.963039 35.555093 78.044521 179.999964 69.886229 -179.999991 0.000000 0.000000 0.000000 
1.561463 27.276958 0.098289 0.000000 0.000000 0.000000 0.862900 -59.505059 2.395827 -27.627027 5.431167 30.445811 67.569853 -16.755605 -2.696738 -37.919298 10.190617 -13.675393 -1.594226 0.000010 0.000002 0.000000 0.000000 0.000000 0.862900 -59.505059 2.395827 -33.320730 1.079385 -34.462764 67.804954 7.337783 -9.865249 -30.016236 -9.603961 26.065822 -1.421663 -0.000021 -0.000003 0.000000 0.000000 0.000000 0.862900 -59.505059 2.395827 10.048305 7.050908 -3.209806 2.441091 0.957137 -1.783377 0.000000 0.000000 0.000000 0.000000 0.000000 0.000000 2.479792 0.937989 -1.751810 -6.876900 17.554563 2.844259 6.782633 31.272499 -8.010911 0.000000 0.000000 0.000000 2.479792 0.937989 -1.751810 -0.408902 5.482843 2.468289 0.000000 0.000000 0.000000 -26.135920 -7.509529 -18.397041 0.000020 -77.254863 0.000035 0.000000 0.000000 0.000000 2.479792 0.937989 -1.751810 1.474618 5.237599 -0.499420 0.000000 0.000000 0.000000 -50.849454 40.216495 77.450548 179.999950 66.153947 -179.999978 0.000000 0.000000 0.000000 
1.548091 27.187057 -0.043530 0.000000 0.000000 0.000000 -1.020620 -54.829357 -0.517446 -31.349878 0.854828 29.869104 71.164820 -14.892309 0.171357 -36.463279 8.146721 -16.186374 -1.594223 0.000009 0.000003 0.000000 0.000000 0.000000 -1.020620 -54.829357 -0.517446 -28.633502 -4.005380 -34.815346 66.617485 6.043777 -9.621674 -32.146456 -10.532295 26.549835 -1.421660 -0.000022 -0.000001 0.000000 0.000000 0.000000 -1.020620 -54.829357 -0.517446 10.427546 2.166536 -2.263954 2.813807 -0.840658 -1.801726 0.000000 0.000000 0.000000 0.000000 0.000000 0.000000 2.865113 -0.871772 -1.777142 -8.060988 17.967625 3.684605 6.664683 33.790718 -8.128766 0.000000 0.000000 0.000000 2.865113 -0.871772 -1.777142 -0.404164 5.289101 2.767728 0.000000 0.000000 0.000000 -29.128114 -18.691724 -15.027620 0.000005 -54.533118 0.000005 0.000000 0.000000 0.000000 2.865113 -0.871772 -1.777142 1.537945 5.623548 0.273604 0.000000 0.000000 0.000000 -45.141779 43.252719 74.287446 180.000005 61.784846 179.999978 0.000000 0.000000 0.000000 
1.423913 27.103146 -0.093597 0.000000 0.000000 0.000000 -0.814054 -49.516310 -1.162634 -36.333102 -3.086078 28.692723 73.296304 -12.929848 2.147839 -34.046615 4.600301 -18.403321 -1.594226 0.000008 0.000003 0.000000 0.000000 0.000000 -0.814054 -49.516310 -1.162634 -23.912344 -9.163946 -35.131836 64.707628 4.439019 -9.360928 -34.183389 -12.016119 27.732228 -1.421658 -0.000021 -0.000001 0.000000 0.000000 0.000000 -0.814054 -49.516310 -1.162634 9.812457 -0.354624 -1.990027 2.618566 -1.496514 -1.851616 0.000000 0.000000 0.000000 0.000000 0.000000 0.000000 2.668891 -1.533093 -1.848476 -8.141426 17.054678 4.403660 6.554518 32.938498 -7.402364 0.000000 0.000000 0.000000 2.668891 -1.533093 -1.848476 -0.570870 6.342867 3.155764 0.000000 0.000000 0.000000 -37.457379 -20.769338 -24.567651 0.000006 -55.027525 0.000021 0.000000 0.000000 0.000000 2.668891 -1.533093 -1.848476 1.359591 8.623769 0.639034 0.000000 0.000000 0.000000 -33.918084 42.555125 66.380881 179.999978 56.897470 179.999991 0.000000 0.000000 0.000000 
1.272227 27.063194 -0.065794 0.000000 0.000000 0.000000 0.086311 -45.418682 -0.396198 -40.010046 -5.503532 27.361760 73.212484 -11.898388 1.870008 -31.566901 1.258879 -19.056467 -1.594227 0.000013 0.000003 0.000000 0.000000 0.000000 0.086311 -45.418682 -0.396198 -20.386677 -12.457888 -35.482898 63.012580 2.853320 -9.164808 -35.507090 -13.524876 29.234425 -1.421667 -0.000022 -0.000001 0.000000 0.000000 0.000000 0.086311 -45.418682 -0.396198 8.975168 0.993965 -2.578171 2.162362 -0.471333 -2.057360 0.000000 0.000000 0.000000 0.000000 0.000000 0.000000 2.213538 -0.510285 -2.077777 -8.191343 15.117743 4.557061 6.698157 27.822168 -5.424517 0.000000 0.000000 0.000000 2.213538 -0.510285 -2.077777 -0.542952 6.472641 2.537705 0.000000 0.000000 0.000000 -41.281906 -17.745065 -38.892265 0.000011 -68.139668 0.000015 0.000000 0.000000 0.000000 2.213538 -0.510285 -2.077777 1.081294 13.817785 0.055523 0.000000 0.000000 0.000000 -22.672670 37.618998 56.570601 179.999991 53.530392 179.999991 0.000000 0.000000 0.000000 
1.149621 27.006596 -0.047050 0.000000 0.000000 0.000000 0.582514 -41.157238 0.855696 -43.680907 -6.386904 25.543494 72.022029 -10.799402 1.104300 -28.283516 -3.253371 -19.127332 -1.594221 0.000009 0.000003 0.000000 0.000000 0.000000 0.582514 -41.157238 0.855696 -16.206669 -14.661001 -36.298815 61.564033 0.619112 -8.299454 -36.731712 -15.243029 31.330607 -1.421664 -0.000021 -0.000002 0.000000 0.000000 0.000000 0.582514 -41.157238 0.855696 9.122098 4.160009 -3.543683 2.097413 1.358760 -2.365952 0.000000 0.000000 0.000000 0.000000 0.000000 0.000000 2.147538 1.315774 -2.412278 -8.307087 12.955908 3.488489 5.862124 20.042852 -2.320388 0.000000 0.000000 0.000000 2.147538 1.315774 -2.412278 -0.233593 4.976139 0.838966 0.000000 0.000000 0.000000 -33.836976 -18.902381 -46.777223 0.000047 -82.683613 0.000065 0.000000 0.000000 0.000000 2.147538 1.315774 -2.412278 0.899575 19.298025 -1.942194 0.000000 0.000000 0.000000 -19.486834 31.265345 47.141675 179.999964 55.611653 -179.999991 0.000000 0.000000 0.000000 
1.058154 26.839844 -0.068237 0.000000 0.000000 0.000000 0.870780 -36.397617 1.957207 -49.144154 -4.727860 22.628748 71.677870 -12.452190 3.313892 -24.423172 -5.827426 -18.056380 -1.594221 0.000009 0.000004 0.000000 0.000000 0.000000 0.870780 -36.397617 1.957207 -11.267693 -16.747678 -37.187556 60.147732 -0.933472 -5.870828 -37.955266 -17.333587 32.836186 -1.421659 -0.000020 -0.000002 0.000000 0.000000 0.000000 0.870780 -36.397617 1.957207 9.856697 7.344198 -4.281718 2.339624 3.193126 -2.478258 0.000000 0.000000 0.000000 0.000000 0.000000 0.000000 2.377907 3.151547 -2.547519 -7.758097 10.778098 2.200925 4.428778 12.171270 0.320724 0.000000 0.000000 0.000000 2.377907 3.151547 -2.547519 0.039007 3.516000 -0.662895 0.000000 0.000000 0.000000 -21.004893 -23.158091 -50.164085 -179.999991 -85.361389 -179.999978 0.000000 0.000000 0.000000 2.377907 3.151547 -2.547519 1.360459 24.207247 -5.578977 0.000000 0.000000 0.000000 -23.607753 24.524230 37.393486 179.999991 65.420221 179.999978 0.000000 0.000000 0.000000 
0.990119 26.658218 -0.089653 0.000000 0.000000 0.000000 1.361588 -32.563425 2.675394 -54.110312 -2.652686 21.057784 71.570281 -12.446960 5.331588 -21.277612 -9.955653 -17.863354 -1.594224 0.000012 0.000002 0.000000 0.000000 0.000000 1.361588 -32.563425 2.675394 -7.574973 -18.825721 -36.937417 58.933830 -0.474704 -4.007065 -39.124225 -20.262212 32.499143 -1.421665 -0.000023 -0.000002 0.000000 0.000000 0.000000 1.361588 -32.563425 2.675394 10.256318 10.754733 -4.646156 2.470361 5.023830 -2.308206 0.000000 0.000000 0.000000 0.000000 0.000000 0.000000 2.478401 4.991188 -2.393491 -7.450310 8.618270 1.775728 4.111716 4.772461 2.376960 0.000000 0.000000 0.000000 2.478401 4.991188 -2.393491 0.240469 2.332530 -1.761638 0.000000 0.000000 0.000000 -6.153652 -27.654954 -51.546420 180.000005 -77.642776 179.999978 0.000000 0.000000 0.000000 2.478401 4.991188 -2.393491 2.690200 28.106549 -10.087323 0.000000 0.000000 0.000000 -29.118063 20.056362 30.142045 179.999814 85.808520 -179.999896 0.000000 0.000000 0.000000 
